PathFileType	4	(X/Y/Z)	 s07c0103.trc
DataRate	CameraRate	NumFrames	NumMarkers	Units	OrigDataRate	OrigDataStartFrame	OrigNumFrames
200	200	5	47	mm	200	1251	2000
Frame#	Time	racr			lacr			c7			jug			rlel			rdr			llel			ldr			s2			lic			ric			lasi			rasi			rpsi			lpsi			rgt			lgt			rth1			rth2			rth3			rth4			rlfc			rmfc			rsh1			rsh2			rsh3			rsh4			rcal			rtoe			rmt5			lth1			lth2			lth4			lth3			llfc			lmfc			lsh1			lsh2			lsh3			lsh4			llmal			lcal			ltoe			lmt5			SBIKE			LBIKE			RBIKE			
		X1	Y1	Z1	X2	Y2	Z2	X3	Y3	Z3	X4	Y4	Z4	X5	Y5	Z5	X6	Y6	Z6	X7	Y7	Z7	X8	Y8	Z8	X9	Y9	Z9	X10	Y10	Z10	X11	Y11	Z11	X12	Y12	Z12	X13	Y13	Z13	X14	Y14	Z14	X15	Y15	Z15	X16	Y16	Z16	X17	Y17	Z17	X18	Y18	Z18	X19	Y19	Z19	X20	Y20	Z20	X21	Y21	Z21	X22	Y22	Z22	X23	Y23	Z23	X24	Y24	Z24	X25	Y25	Z25	X26	Y26	Z26	X27	Y27	Z27	X28	Y28	Z28	X29	Y29	Z29	X30	Y30	Z30	X31	Y31	Z31	X32	Y32	Z32	X33	Y33	Z33	X34	Y34	Z34	X35	Y35	Z35	X36	Y36	Z36	X37	Y37	Z37	X38	Y38	Z38	X39	Y39	Z39	X40	Y40	Z40	X41	Y41	Z41	X42	Y42	Z42	X43	Y43	Z43	X44	Y44	Z44	X45	Y45	Z45	X46	Y46	Z46	X47	Y47	Z47	
1251	6.2550	494.344846	1402.346308	-49.632399	528.087291	1396.540179	-308.148002	469.145557	1445.765183	-185.974629	435.508915	1300.255326	-199.830971	513.282811	1081.263212	95.389733	717.187932	915.102233	-43.964133	527.783127	1107.710625	-511.222973	725.438115	914.360420	-403.010095	-115.828256	1198.913073	-256.779032	68.269476	1245.587336	-373.302435	35.763785	1251.462489	-88.594814	90.872741	1172.882454	-345.337101	49.414921	1199.361849	-100.199685	-96.275765	1241.436266	-204.806092	-68.463134	1246.541621	-308.962322	-23.593514	1119.128267	-48.259361	14.037658	1092.765236	-410.218508	111.906577	1010.622503	-44.313357	185.239827	963.993306	-56.559285	227.634294	889.874660	-60.678730	209.360262	988.788459	-71.189417	311.536985	790.341174	-94.593083	297.451140	771.063102	-195.830495	275.751367	652.224357	-66.175069	275.995259	564.389697	-84.678278	236.774928	486.876836	-77.184428	288.484901	564.940094	-122.569147	146.904566	285.804804	-103.247185	425.237617	369.792285	-116.792666	365.057469	309.458045	-46.827191	98.560747	1008.967300	-411.963714	180.703705	976.231139	-408.531870	200.951243	1003.059537	-395.461634	235.844095	905.908064	-405.402373	346.969841	771.187288	-371.837582	331.028694	750.962724	-274.179677	237.821215	670.390591	-394.683963	191.159563	599.265156	-379.434989	112.055118	557.081846	-388.421274	196.033091	596.712341	-337.600630	8.638603	475.862306	-392.125579	-66.765310	493.808899	-357.856061	123.525094	276.196726	-355.495064	49.891313	315.581320	-417.937463	-258.093670	967.439377	-231.790600	-75.473573	82.991813	-436.963000	-82.309438	79.297335	-39.907711	
1252	6.2600	494.834297	1403.509663	-50.369871	526.025619	1400.486767	-309.346599	467.569230	1448.676823	-186.798850	434.670089	1303.125222	-201.997218	514.818523	1082.596398	95.365935	717.748700	915.292829	-44.193628	529.784307	1110.297169	-510.508307	725.910122	914.472522	-402.973482	-115.747006	1198.005780	-254.418942	67.551535	1246.722670	-371.327975	36.938176	1248.836766	-86.637671	90.776724	1173.805025	-343.690094	50.355775	1196.911386	-97.883187	-96.194853	1240.020321	-201.588074	-69.058770	1246.019528	-306.195612	-22.839446	1116.321635	-46.646190	15.057729	1093.723027	-409.124894	110.614522	1005.834776	-43.517198	182.743181	957.489864	-56.604370	223.366536	882.406417	-61.035331	207.189858	981.654829	-71.780843	304.193321	780.649695	-94.879256	288.084408	761.430332	-197.779369	269.649316	642.350370	-66.059901	271.180950	553.983045	-84.853161	233.029901	476.072829	-77.495927	284.215451	554.513438	-122.595222	146.077192	273.856106	-103.456246	423.652242	359.510343	-117.584642	364.188197	299.223374	-46.943908	100.738192	1011.532969	-411.454833	183.581394	980.756170	-407.898245	203.232360	1008.033971	-394.768574	240.351928	911.844304	-404.844337	354.231492	779.348906	-371.218238	338.517737	758.924699	-273.564877	244.812416	678.977757	-394.046398	197.596066	608.240403	-379.021178	118.141084	566.847416	-388.115953	202.621512	605.627641	-337.293825	14.392166	486.521544	-392.063172	-59.734051	506.233989	-357.579185	123.822745	283.895615	-355.732624	51.203129	325.280279	-417.844823	-258.078271	967.585944	-231.755660	-75.488711	83.185354	-437.080753	-82.302524	79.291184	-39.888072	
1253	6.2650	495.288456	1404.827610	-51.248472	523.888912	1404.361625	-310.467515	465.989113	1451.627497	-187.564123	433.682276	1306.073237	-204.023526	516.563551	1084.131056	95.313562	718.214836	915.434351	-44.497437	531.846195	1112.869606	-509.676885	726.162247	914.584755	-402.815880	-115.648083	1197.411879	-252.034944	66.551222	1248.145467	-369.066938	37.395865	1246.780021	-84.287449	90.397480	1174.783554	-341.756062	51.404687	1194.909763	-95.715569	-96.498128	1239.362950	-198.317772	-69.530338	1246.068099	-304.059987	-21.943424	1113.873122	-45.245968	15.889305	1095.076038	-408.196196	109.432917	1001.883519	-43.047509	180.180851	951.669090	-56.789431	218.928039	875.670323	-61.438750	204.992531	975.154625	-72.485519	296.678547	770.836757	-96.030521	281.394778	752.472539	-197.805839	264.220543	632.294200	-66.684062	266.922224	544.083202	-85.494360	229.754192	465.759205	-78.190101	279.757426	544.847612	-123.345069	144.098888	263.511424	-102.769845	422.264524	348.699359	-118.058070	362.837830	288.998627	-47.139795	102.743040	1014.375897	-410.701342	186.260817	985.335012	-407.056661	205.337912	1013.200018	-394.281176	244.592009	917.929010	-404.037360	361.524968	788.440430	-371.423486	345.657026	767.804936	-272.780586	251.694691	688.065894	-393.427023	204.284311	617.525423	-378.552041	124.320673	576.353938	-387.454410	209.048891	614.711362	-336.954331	20.604517	496.755308	-391.776859	-53.226595	519.062277	-357.409384	124.794137	291.772440	-355.864752	53.273009	335.004787	-417.691308	-258.051457	967.591020	-231.511875	-75.456560	83.073308	-436.908669	-82.287060	79.304086	-39.894298	
1254	6.2700	495.644031	1406.234820	-52.192161	521.611077	1408.336196	-311.690621	464.423959	1454.688760	-188.194510	432.398838	1309.215995	-205.937891	518.335986	1085.703579	95.219440	718.498434	915.546156	-44.705363	533.955644	1115.397584	-508.570483	726.326222	914.762450	-402.773700	-115.303417	1197.017807	-249.690558	65.496948	1249.948984	-367.137237	38.666687	1244.965692	-82.476742	90.099926	1176.261272	-340.431141	52.671559	1193.462039	-93.782142	-96.355120	1238.848274	-195.437991	-70.306251	1246.307675	-301.268741	-20.902081	1111.801885	-43.707875	16.456945	1096.856310	-407.259151	108.142996	998.175835	-42.866390	177.568505	946.277410	-57.254349	214.415963	869.366402	-61.986183	202.767028	969.111658	-73.426093	289.856416	761.900964	-97.432469	271.747890	744.751633	-199.396192	259.041084	622.947057	-67.581314	262.825582	534.801377	-86.697052	226.834956	456.016729	-78.838466	274.490994	536.039975	-124.912508	142.106110	253.323618	-103.240428	420.665795	338.084275	-118.114403	360.147409	278.356319	-48.041534	104.480925	1017.280506	-409.316033	188.532148	989.986949	-405.672107	207.227825	1018.851155	-394.292008	248.545957	924.141815	-403.020255	368.457857	797.468906	-370.721257	353.132367	776.679861	-272.289450	258.685839	697.452086	-392.762955	211.004421	626.914383	-377.971355	130.938821	586.146231	-387.087492	215.859106	624.063293	-336.318513	27.247602	506.940093	-391.713414	-45.724512	531.434458	-357.642122	126.383017	299.523777	-355.877781	55.964760	344.614736	-417.552432	-257.927503	967.636024	-231.473096	-75.421733	83.096105	-436.914625	-82.270964	79.295555	-39.868691	
1255	6.2750	495.997028	1407.701627	-53.306976	519.369303	1412.132699	-312.942289	462.961271	1457.667963	-188.721777	431.047859	1312.315191	-207.667593	520.452806	1087.786655	95.461388	718.649166	915.713996	-44.794352	535.783543	1117.902528	-507.483071	726.434444	914.883178	-402.767605	-115.539935	1197.229859	-247.031594	64.089454	1252.071023	-365.066530	39.827692	1243.906983	-80.359909	89.563114	1178.062270	-339.081724	53.971442	1192.790823	-92.112053	-95.640280	1238.439986	-192.631980	-70.465420	1246.723365	-298.624285	-19.895274	1110.241361	-42.400178	16.895838	1099.061769	-406.480615	106.866831	994.457620	-42.983499	174.957258	940.926760	-57.816925	210.181406	863.168586	-62.661081	200.505732	963.065921	-74.450186	282.777625	753.502034	-98.611332	264.125766	735.730028	-199.723310	254.003976	613.990021	-68.916493	258.425071	526.164710	-87.917568	223.691608	446.877387	-79.376117	269.147579	527.634628	-127.066202	139.258142	243.923847	-103.058338	418.447387	328.390033	-117.655094	357.403968	268.186434	-48.312904	106.176964	1020.659424	-408.106168	190.746750	995.152982	-404.931338	209.054995	1024.554479	-394.383611	251.937460	930.385725	-401.341886	375.100984	807.198265	-370.250433	360.091102	787.040312	-270.408241	265.421331	707.003819	-391.532156	217.868840	636.681799	-377.495264	137.767332	595.919364	-386.796682	222.744898	633.776491	-335.800519	34.309063	516.841161	-391.724080	-38.076212	542.868654	-357.076191	127.909851	306.030343	-354.316244	59.314577	354.708904	-418.049246	-257.841159	967.647062	-231.450197	-75.326205	83.160872	-436.916886	-82.267736	79.313346	-39.854331	
